<svg version="1" xmlns="http://www.w3.org/2000/svg" width="682.667" height="682.667" viewBox="0 0 512.000000 512.000000"><path d="M0 256v256h512V0H0v256zm173.1-124.5c.3.2-.7 7.3-2.1 15.7l-2.6 15.3-24.9.5-25 .5-1.3 7.5c-2.1 12.1-1.2 16.5 5.6 28.8 7.4 13.1 8.5 16.9 8.1 26.3-.7 13.5-8.6 23.3-22.3 27.9l-6.7 2.2 5.9 2.8c10.3 4.8 14.9 12.9 13.9 24.1-.7 8.4-4.8 15.4-16.8 29-6 6.8-11.6 13.8-12.4 15.6-1.7 3.5-4.5 15.3-4.5 19v2.3h24.5c18.9 0 24.5.3 24.5 1.2 0 .7-1.1 7.8-2.5 15.8s-2.5 14.6-2.5 14.7c0 .9-55.7.1-60.5-.8-10.9-2-16.6-6.4-20-15.4-3.4-8.8 0-31 6.7-44.3 2-3.9 6.7-10.2 12.6-16.5 5.2-5.6 10.3-11.6 11.3-13.2 2.7-4.3 2.5-10.6-.3-13.3-4.3-4-7.6-4.5-28.6-5l-20.3-.4.6-3.2c2.8-16.6 4.5-27.4 4.5-28 0-.3 7.9-.6 17.5-.6 23.8 0 32.8-2.2 36.8-9 3.4-5.6 2.2-10.3-6.1-24.1-6.9-11.7-7.6-14.3-6.9-26.8.8-12.3 2.8-22.6 5.7-28.6 5.2-10.8 15.4-17.8 28.3-19.4 6.6-.9 59-1.4 59.8-.6zm274 2.3c5.9 2.3 10.5 6.5 13.5 12.2 4.1 7.7 1.2 30.2-5.6 44.5-2.9 6.2-6.1 10.5-13.6 18.5-13.5 14.6-16 20.6-10.6 26 4 3.9 10.5 5 30.7 5 20.6 0 18.6-2.3 15.3 18.2l-2.2 13.8h-16.1c-18.1 0-25.8 1-32.1 4.1-5.1 2.4-7.4 6.1-7.4 11.6 0 3.9 2.6 10.5 5.9 15.1 4.6 6.5 8.2 15.2 8.7 21.4.6 6.1-1.4 23.2-3.6 30.8-1.7 6.1-7.3 14.3-12.4 18.1-9.1 6.9-11.3 7.2-47 7.7l-31.9.4.6-2.9c.3-1.5 1.6-8.8 2.8-16.1l2.2-13.2H394l.5-2.3c1.3-5.3 2-15.6 1.4-20-.5-3-2.8-8.4-6.3-14.6-8.9-15.6-10.4-25.9-5.6-36.7 3.6-8.4 13.6-16.2 23-18 1.6-.4 3-.9 2.9-1.3 0-.3-2.8-2-6.2-3.6-4.3-2.1-7-4.3-9.2-7.3-2.8-4.1-3-4.9-3-13.5 0-8.3.3-9.7 3-14.6 1.7-3 7.6-10.7 13.3-17 5.7-6.4 11.2-13.2 12.2-15.2 1.5-2.9 5-17.6 5-21 0-.5-10.9-.9-24.5-.9-24.2 0-24.5 0-24.5-2.1 0-2.3 3.9-26.6 4.6-28.7.3-1.2 5.9-1.3 30.7-1 28.1.4 30.6.6 35.8 2.6zM206.6 301.1c6.2 3 8.9 7.8 8.8 15.5-.2 9.7-2.9 17.2-7.8 21.9-4.9 4.8-9.9 6.5-18.8 6.5-13.3 0-20.5-7.3-19.4-19.6 1.3-13.6 6.3-21.7 15.2-24.9 6.1-2.2 17-1.9 22 .6zm53-.2c4.2 1.9 7.6 6.3 8.8 11.3.8 3.5-1.2 16.4-3.1 20.3-4.5 9-12.8 13.1-24.9 12.3-9.5-.6-14.4-3.6-17-10.3-1.5-4.1-1.6-5.6-.6-12.1 1.9-11.9 6.7-19 14.8-21.9 5.7-2.1 17-1.8 22 .4zm53.4.3c3.4 1.8 5.1 3.5 6.9 7.1 2.3 4.6 2.3 5.3 1.3 12.8-.6 4.3-1.9 9.4-2.8 11.2-4.6 9.2-12.8 13.3-24.9 12.5-9.1-.6-13.5-3.1-16.6-9.4-2-4.3-2.1-5.1-1.1-12.5 2.4-16.8 9.9-23.8 25.7-23.9 5.4 0 8.1.5 11.5 2.2z"/></svg>